# xmcd
# 
# Track frame offsets:
#     182
#     13785
#     27012
#     40022
#     50342
#     60197
#     76585
#     86105
#     98407
#     111682
#     128750
#     143940
#     156630
#     167337
#     181417
#     195395
#     206227
#     216897
#     231802
#     244985
#     264377
#     275435
#     288905
#     300665
#     316157
#     332120
# 
# Disc length: 4573
# 
# Revision: 2
# Processed by: cddbd v1.5.2PL0 Copyright (c) Steve Scherf et al.
# Submitted via: BonkEnc v1.0.8
# 
DISCID=6711db1a
DTITLE=Tião Carreiro e Pardinho - Dose Dupla - Vol. 3
DYEAR=1995
DGENRE=Country
TTITLE0=O Mineiro e o Italiano
TTITLE1=Porta fechada
TTITLE2=Quem ama não esquece
TTITLE3=Linha de frente
TTITLE4=Cantar da siriema
TTITLE5=Ana Rosa
TTITLE6=Jerimu
TTITLE7=Minha prece
TTITLE8=Geada do Paraná
TTITLE9=Catimbau
TTITLE10=Punhal da falsidade
TTITLE11=Prece de amor
TTITLE12=Ondas de amor
TTITLE13=Fujo de Ti
TTITLE14=Mulher amada
TTITLE15=Rio de pranto
TTITLE16=A saudade continua
TTITLE17=Até quinta feira
TTITLE18=O cigano
TTITLE19=Golpe de mestre
TTITLE20=A ferro e fogo
TTITLE21=Viúva rica
TTITLE22=Vaqueiro do norte
TTITLE23=Ato de bravura
TTITLE24=Confiança
TTITLE25=Mentira tem perna curta
EXTD=
EXTT0=
EXTT1=
EXTT2=
EXTT3=
EXTT4=
EXTT5=
EXTT6=
EXTT7=
EXTT8=
EXTT9=
EXTT10=
EXTT11=
EXTT12=
EXTT13=
EXTT14=
EXTT15=
EXTT16=
EXTT17=
EXTT18=
EXTT19=
EXTT20=
EXTT21=
EXTT22=
EXTT23=
EXTT24=
EXTT25=
PLAYORDER=
